<svg width="168" height="168" viewBox="0 0 168 168" fill="none" xmlns="http://www.w3.org/2000/svg">
<mask id="mask0_636_4442" style="mask-type:alpha" maskUnits="userSpaceOnUse" x="0" y="0" width="24" height="24">
<rect width="24" height="24" fill="#C3C7CD"/>
</mask>
<g mask="url(#mask0_636_4442)">
<rect x="21.2139" y="24.3892" width="4.42114" height="3.39045" transform="rotate(-45 21.2139 24.3892)" fill="#D70F37"/>
<rect x="13.1411" y="24.4604" width="15.8702" height="3.39045" transform="rotate(-45 13.1411 24.4604)" fill="#D70F37"/>
<rect x="5.38477" y="24.2173" width="26.8039" height="3.39045" transform="rotate(-45 5.38477 24.2173)" fill="#D70F37"/>
<rect x="-1.74219" y="23.3438" width="35.133" height="3.39045" transform="rotate(-45 -1.74219 23.3438)" fill="#D70F37"/>
<rect x="-2.68848" y="16.29" width="26.8728" height="3.39045" transform="rotate(-45 -2.68848 16.29)" fill="#D70F37"/>
<rect x="-2.68896" y="8.29077" width="15.5588" height="3.39045" transform="rotate(-45 -2.68896 8.29077)" fill="#D70F37"/>
<rect x="-2.58301" y="0.18457" width="3.98196" height="3.39045" transform="rotate(-45 -2.58301 0.18457)" fill="#D70F37"/>
</g>
<mask id="mask1_636_4442" style="mask-type:alpha" maskUnits="userSpaceOnUse" x="0" y="144" width="24" height="24">
<rect y="144" width="24" height="24" fill="#C3C7CD"/>
</mask>
<g mask="url(#mask1_636_4442)">
<rect x="21.2139" y="168.389" width="4.42114" height="3.39045" transform="rotate(-45 21.2139 168.389)" fill="#D70F37"/>
<rect x="13.1411" y="168.46" width="15.8702" height="3.39045" transform="rotate(-45 13.1411 168.46)" fill="#D70F37"/>
<rect x="5.38477" y="168.217" width="26.8039" height="3.39045" transform="rotate(-45 5.38477 168.217)" fill="#D70F37"/>
<rect x="-1.74219" y="167.344" width="35.133" height="3.39045" transform="rotate(-45 -1.74219 167.344)" fill="#D70F37"/>
<rect x="-2.68848" y="160.29" width="26.8728" height="3.39045" transform="rotate(-45 -2.68848 160.29)" fill="#D70F37"/>
<rect x="-2.68896" y="152.291" width="15.5588" height="3.39045" transform="rotate(-45 -2.68896 152.291)" fill="#D70F37"/>
<rect x="-2.58301" y="144.185" width="3.98196" height="3.39045" transform="rotate(-45 -2.58301 144.185)" fill="#D70F37"/>
</g>
<mask id="mask2_636_4442" style="mask-type:alpha" maskUnits="userSpaceOnUse" x="24" y="0" width="24" height="24">
<rect x="24" width="24" height="24" fill="#C3C7CD"/>
</mask>
<g mask="url(#mask2_636_4442)">
<rect x="45.2139" y="24.3892" width="4.42114" height="3.39045" transform="rotate(-45 45.2139 24.3892)" fill="#D70F37"/>
<rect x="37.1411" y="24.4604" width="15.8702" height="3.39045" transform="rotate(-45 37.1411 24.4604)" fill="#D70F37"/>
<rect x="29.3848" y="24.2173" width="26.8039" height="3.39045" transform="rotate(-45 29.3848 24.2173)" fill="#D70F37"/>
<rect x="22.2578" y="23.3438" width="35.133" height="3.39045" transform="rotate(-45 22.2578 23.3438)" fill="#D70F37"/>
<rect x="21.3115" y="16.29" width="26.8728" height="3.39045" transform="rotate(-45 21.3115 16.29)" fill="#D70F37"/>
<rect x="21.311" y="8.29077" width="15.5588" height="3.39045" transform="rotate(-45 21.311 8.29077)" fill="#D70F37"/>
<rect x="21.417" y="0.18457" width="3.98196" height="3.39045" transform="rotate(-45 21.417 0.18457)" fill="#D70F37"/>
</g>
<mask id="mask3_636_4442" style="mask-type:alpha" maskUnits="userSpaceOnUse" x="24" y="144" width="24" height="24">
<rect x="24" y="144" width="24" height="24" fill="#C3C7CD"/>
</mask>
<g mask="url(#mask3_636_4442)">
<rect x="45.2139" y="168.389" width="4.42114" height="3.39045" transform="rotate(-45 45.2139 168.389)" fill="#D70F37"/>
<rect x="37.1411" y="168.46" width="15.8702" height="3.39045" transform="rotate(-45 37.1411 168.46)" fill="#D70F37"/>
<rect x="29.3848" y="168.217" width="26.8039" height="3.39045" transform="rotate(-45 29.3848 168.217)" fill="#D70F37"/>
<rect x="22.2578" y="167.344" width="35.133" height="3.39045" transform="rotate(-45 22.2578 167.344)" fill="#D70F37"/>
<rect x="21.3115" y="160.29" width="26.8728" height="3.39045" transform="rotate(-45 21.3115 160.29)" fill="#D70F37"/>
<rect x="21.311" y="152.291" width="15.5588" height="3.39045" transform="rotate(-45 21.311 152.291)" fill="#D70F37"/>
<rect x="21.417" y="144.185" width="3.98196" height="3.39045" transform="rotate(-45 21.417 144.185)" fill="#D70F37"/>
</g>
<mask id="mask4_636_4442" style="mask-type:alpha" maskUnits="userSpaceOnUse" x="48" y="0" width="24" height="24">
<rect x="48" width="24" height="24" fill="#C3C7CD"/>
</mask>
<g mask="url(#mask4_636_4442)">
<rect x="69.2139" y="24.3892" width="4.42114" height="3.39045" transform="rotate(-45 69.2139 24.3892)" fill="#D70F37"/>
<rect x="61.1411" y="24.4604" width="15.8702" height="3.39045" transform="rotate(-45 61.1411 24.4604)" fill="#D70F37"/>
<rect x="53.3848" y="24.2173" width="26.8039" height="3.39045" transform="rotate(-45 53.3848 24.2173)" fill="#D70F37"/>
<rect x="46.2578" y="23.3438" width="35.133" height="3.39045" transform="rotate(-45 46.2578 23.3438)" fill="#D70F37"/>
<rect x="45.3115" y="16.29" width="26.8728" height="3.39045" transform="rotate(-45 45.3115 16.29)" fill="#D70F37"/>
<rect x="45.311" y="8.29077" width="15.5588" height="3.39045" transform="rotate(-45 45.311 8.29077)" fill="#D70F37"/>
<rect x="45.417" y="0.18457" width="3.98196" height="3.39045" transform="rotate(-45 45.417 0.18457)" fill="#D70F37"/>
</g>
<mask id="mask5_636_4442" style="mask-type:alpha" maskUnits="userSpaceOnUse" x="48" y="144" width="24" height="24">
<rect x="48" y="144" width="24" height="24" fill="#C3C7CD"/>
</mask>
<g mask="url(#mask5_636_4442)">
<rect x="69.2139" y="168.389" width="4.42114" height="3.39045" transform="rotate(-45 69.2139 168.389)" fill="#D70F37"/>
<rect x="61.1411" y="168.46" width="15.8702" height="3.39045" transform="rotate(-45 61.1411 168.46)" fill="#D70F37"/>
<rect x="53.3848" y="168.217" width="26.8039" height="3.39045" transform="rotate(-45 53.3848 168.217)" fill="#D70F37"/>
<rect x="46.2578" y="167.344" width="35.133" height="3.39045" transform="rotate(-45 46.2578 167.344)" fill="#D70F37"/>
<rect x="45.3115" y="160.29" width="26.8728" height="3.39045" transform="rotate(-45 45.3115 160.29)" fill="#D70F37"/>
<rect x="45.311" y="152.291" width="15.5588" height="3.39045" transform="rotate(-45 45.311 152.291)" fill="#D70F37"/>
<rect x="45.417" y="144.185" width="3.98196" height="3.39045" transform="rotate(-45 45.417 144.185)" fill="#D70F37"/>
</g>
<mask id="mask6_636_4442" style="mask-type:alpha" maskUnits="userSpaceOnUse" x="72" y="0" width="24" height="24">
<rect x="72" width="24" height="24" fill="#C3C7CD"/>
</mask>
<g mask="url(#mask6_636_4442)">
<rect x="93.2139" y="24.3892" width="4.42114" height="3.39045" transform="rotate(-45 93.2139 24.3892)" fill="#D70F37"/>
<rect x="85.1411" y="24.4604" width="15.8702" height="3.39045" transform="rotate(-45 85.1411 24.4604)" fill="#D70F37"/>
<rect x="77.3848" y="24.2173" width="26.8039" height="3.39045" transform="rotate(-45 77.3848 24.2173)" fill="#D70F37"/>
<rect x="70.2578" y="23.3438" width="35.133" height="3.39045" transform="rotate(-45 70.2578 23.3438)" fill="#D70F37"/>
<rect x="69.3115" y="16.29" width="26.8728" height="3.39045" transform="rotate(-45 69.3115 16.29)" fill="#D70F37"/>
<rect x="69.311" y="8.29077" width="15.5588" height="3.39045" transform="rotate(-45 69.311 8.29077)" fill="#D70F37"/>
<rect x="69.417" y="0.18457" width="3.98196" height="3.39045" transform="rotate(-45 69.417 0.18457)" fill="#D70F37"/>
</g>
<mask id="mask7_636_4442" style="mask-type:alpha" maskUnits="userSpaceOnUse" x="72" y="144" width="24" height="24">
<rect x="72" y="144" width="24" height="24" fill="#C3C7CD"/>
</mask>
<g mask="url(#mask7_636_4442)">
<rect x="93.2139" y="168.389" width="4.42114" height="3.39045" transform="rotate(-45 93.2139 168.389)" fill="#D70F37"/>
<rect x="85.1411" y="168.46" width="15.8702" height="3.39045" transform="rotate(-45 85.1411 168.46)" fill="#D70F37"/>
<rect x="77.3848" y="168.217" width="26.8039" height="3.39045" transform="rotate(-45 77.3848 168.217)" fill="#D70F37"/>
<rect x="70.2578" y="167.344" width="35.133" height="3.39045" transform="rotate(-45 70.2578 167.344)" fill="#D70F37"/>
<rect x="69.3115" y="160.29" width="26.8728" height="3.39045" transform="rotate(-45 69.3115 160.29)" fill="#D70F37"/>
<rect x="69.311" y="152.291" width="15.5588" height="3.39045" transform="rotate(-45 69.311 152.291)" fill="#D70F37"/>
<rect x="69.417" y="144.185" width="3.98196" height="3.39045" transform="rotate(-45 69.417 144.185)" fill="#D70F37"/>
</g>
<mask id="mask8_636_4442" style="mask-type:alpha" maskUnits="userSpaceOnUse" x="96" y="0" width="24" height="24">
<rect x="96" width="24" height="24" fill="#C3C7CD"/>
</mask>
<g mask="url(#mask8_636_4442)">
<rect x="117.214" y="24.3892" width="4.42114" height="3.39045" transform="rotate(-45 117.214 24.3892)" fill="#D70F37"/>
<rect x="109.141" y="24.4604" width="15.8702" height="3.39045" transform="rotate(-45 109.141 24.4604)" fill="#D70F37"/>
<rect x="101.385" y="24.2173" width="26.8039" height="3.39045" transform="rotate(-45 101.385 24.2173)" fill="#D70F37"/>
<rect x="94.2578" y="23.3438" width="35.133" height="3.39045" transform="rotate(-45 94.2578 23.3438)" fill="#D70F37"/>
<rect x="93.3115" y="16.29" width="26.8728" height="3.39045" transform="rotate(-45 93.3115 16.29)" fill="#D70F37"/>
<rect x="93.311" y="8.29077" width="15.5588" height="3.39045" transform="rotate(-45 93.311 8.29077)" fill="#D70F37"/>
<rect x="93.417" y="0.18457" width="3.98196" height="3.39045" transform="rotate(-45 93.417 0.18457)" fill="#D70F37"/>
</g>
<mask id="mask9_636_4442" style="mask-type:alpha" maskUnits="userSpaceOnUse" x="96" y="144" width="24" height="24">
<rect x="96" y="144" width="24" height="24" fill="#C3C7CD"/>
</mask>
<g mask="url(#mask9_636_4442)">
<rect x="117.214" y="168.389" width="4.42114" height="3.39045" transform="rotate(-45 117.214 168.389)" fill="#D70F37"/>
<rect x="109.141" y="168.46" width="15.8702" height="3.39045" transform="rotate(-45 109.141 168.46)" fill="#D70F37"/>
<rect x="101.385" y="168.217" width="26.8039" height="3.39045" transform="rotate(-45 101.385 168.217)" fill="#D70F37"/>
<rect x="94.2578" y="167.344" width="35.133" height="3.39045" transform="rotate(-45 94.2578 167.344)" fill="#D70F37"/>
<rect x="93.3115" y="160.29" width="26.8728" height="3.39045" transform="rotate(-45 93.3115 160.29)" fill="#D70F37"/>
<rect x="93.311" y="152.291" width="15.5588" height="3.39045" transform="rotate(-45 93.311 152.291)" fill="#D70F37"/>
<rect x="93.417" y="144.185" width="3.98196" height="3.39045" transform="rotate(-45 93.417 144.185)" fill="#D70F37"/>
</g>
<mask id="mask10_636_4442" style="mask-type:alpha" maskUnits="userSpaceOnUse" x="120" y="0" width="24" height="24">
<rect x="120" width="24" height="24" fill="#C3C7CD"/>
</mask>
<g mask="url(#mask10_636_4442)">
<rect x="141.214" y="24.3892" width="4.42114" height="3.39045" transform="rotate(-45 141.214 24.3892)" fill="#D70F37"/>
<rect x="133.141" y="24.4604" width="15.8702" height="3.39045" transform="rotate(-45 133.141 24.4604)" fill="#D70F37"/>
<rect x="125.385" y="24.2173" width="26.8039" height="3.39045" transform="rotate(-45 125.385 24.2173)" fill="#D70F37"/>
<rect x="118.258" y="23.3438" width="35.133" height="3.39045" transform="rotate(-45 118.258 23.3438)" fill="#D70F37"/>
<rect x="117.312" y="16.29" width="26.8728" height="3.39045" transform="rotate(-45 117.312 16.29)" fill="#D70F37"/>
<rect x="117.311" y="8.29077" width="15.5588" height="3.39045" transform="rotate(-45 117.311 8.29077)" fill="#D70F37"/>
<rect x="117.417" y="0.18457" width="3.98196" height="3.39045" transform="rotate(-45 117.417 0.18457)" fill="#D70F37"/>
</g>
<mask id="mask11_636_4442" style="mask-type:alpha" maskUnits="userSpaceOnUse" x="120" y="144" width="24" height="24">
<rect x="120" y="144" width="24" height="24" fill="#C3C7CD"/>
</mask>
<g mask="url(#mask11_636_4442)">
<rect x="141.214" y="168.389" width="4.42114" height="3.39045" transform="rotate(-45 141.214 168.389)" fill="#D70F37"/>
<rect x="133.141" y="168.46" width="15.8702" height="3.39045" transform="rotate(-45 133.141 168.46)" fill="#D70F37"/>
<rect x="125.385" y="168.217" width="26.8039" height="3.39045" transform="rotate(-45 125.385 168.217)" fill="#D70F37"/>
<rect x="118.258" y="167.344" width="35.133" height="3.39045" transform="rotate(-45 118.258 167.344)" fill="#D70F37"/>
<rect x="117.312" y="160.29" width="26.8728" height="3.39045" transform="rotate(-45 117.312 160.29)" fill="#D70F37"/>
<rect x="117.311" y="152.291" width="15.5588" height="3.39045" transform="rotate(-45 117.311 152.291)" fill="#D70F37"/>
<rect x="117.417" y="144.185" width="3.98196" height="3.39045" transform="rotate(-45 117.417 144.185)" fill="#D70F37"/>
</g>
<mask id="mask12_636_4442" style="mask-type:alpha" maskUnits="userSpaceOnUse" x="144" y="0" width="24" height="24">
<rect x="144" width="24" height="24" fill="#C3C7CD"/>
</mask>
<g mask="url(#mask12_636_4442)">
<rect x="165.214" y="24.3892" width="4.42114" height="3.39045" transform="rotate(-45 165.214 24.3892)" fill="#D70F37"/>
<rect x="157.141" y="24.4604" width="15.8702" height="3.39045" transform="rotate(-45 157.141 24.4604)" fill="#D70F37"/>
<rect x="149.385" y="24.2173" width="26.8039" height="3.39045" transform="rotate(-45 149.385 24.2173)" fill="#D70F37"/>
<rect x="142.258" y="23.3438" width="35.133" height="3.39045" transform="rotate(-45 142.258 23.3438)" fill="#D70F37"/>
<rect x="141.312" y="16.29" width="26.8728" height="3.39045" transform="rotate(-45 141.312 16.29)" fill="#D70F37"/>
<rect x="141.311" y="8.29077" width="15.5588" height="3.39045" transform="rotate(-45 141.311 8.29077)" fill="#D70F37"/>
<rect x="141.417" y="0.18457" width="3.98196" height="3.39045" transform="rotate(-45 141.417 0.18457)" fill="#D70F37"/>
</g>
<mask id="mask13_636_4442" style="mask-type:alpha" maskUnits="userSpaceOnUse" x="144" y="144" width="24" height="24">
<rect x="144" y="144" width="24" height="24" fill="#C3C7CD"/>
</mask>
<g mask="url(#mask13_636_4442)">
<rect x="165.214" y="168.389" width="4.42114" height="3.39045" transform="rotate(-45 165.214 168.389)" fill="#D70F37"/>
<rect x="157.141" y="168.46" width="15.8702" height="3.39045" transform="rotate(-45 157.141 168.46)" fill="#D70F37"/>
<rect x="149.385" y="168.217" width="26.8039" height="3.39045" transform="rotate(-45 149.385 168.217)" fill="#D70F37"/>
<rect x="142.258" y="167.344" width="35.133" height="3.39045" transform="rotate(-45 142.258 167.344)" fill="#D70F37"/>
<rect x="141.312" y="160.29" width="26.8728" height="3.39045" transform="rotate(-45 141.312 160.29)" fill="#D70F37"/>
<rect x="141.311" y="152.291" width="15.5588" height="3.39045" transform="rotate(-45 141.311 152.291)" fill="#D70F37"/>
<rect x="141.417" y="144.185" width="3.98196" height="3.39045" transform="rotate(-45 141.417 144.185)" fill="#D70F37"/>
</g>
<mask id="mask14_636_4442" style="mask-type:alpha" maskUnits="userSpaceOnUse" x="144" y="24" width="24" height="24">
<rect x="144" y="24" width="24" height="24" fill="#C3C7CD"/>
</mask>
<g mask="url(#mask14_636_4442)">
<rect x="165.214" y="48.3892" width="4.42114" height="3.39045" transform="rotate(-45 165.214 48.3892)" fill="#D70F37"/>
<rect x="157.141" y="48.4604" width="15.8702" height="3.39045" transform="rotate(-45 157.141 48.4604)" fill="#D70F37"/>
<rect x="149.385" y="48.2173" width="26.8039" height="3.39045" transform="rotate(-45 149.385 48.2173)" fill="#D70F37"/>
<rect x="142.258" y="47.3438" width="35.133" height="3.39045" transform="rotate(-45 142.258 47.3438)" fill="#D70F37"/>
<rect x="141.312" y="40.29" width="26.8728" height="3.39045" transform="rotate(-45 141.312 40.29)" fill="#D70F37"/>
<rect x="141.311" y="32.2908" width="15.5588" height="3.39045" transform="rotate(-45 141.311 32.2908)" fill="#D70F37"/>
<rect x="141.417" y="24.1846" width="3.98196" height="3.39045" transform="rotate(-45 141.417 24.1846)" fill="#D70F37"/>
</g>
<mask id="mask15_636_4442" style="mask-type:alpha" maskUnits="userSpaceOnUse" x="0" y="24" width="24" height="24">
<rect y="24" width="24" height="24" fill="#C3C7CD"/>
</mask>
<g mask="url(#mask15_636_4442)">
<rect x="21.2139" y="48.3892" width="4.42114" height="3.39045" transform="rotate(-45 21.2139 48.3892)" fill="#D70F37"/>
<rect x="13.1411" y="48.4604" width="15.8702" height="3.39045" transform="rotate(-45 13.1411 48.4604)" fill="#D70F37"/>
<rect x="5.38477" y="48.2173" width="26.8039" height="3.39045" transform="rotate(-45 5.38477 48.2173)" fill="#D70F37"/>
<rect x="-1.74219" y="47.3438" width="35.133" height="3.39045" transform="rotate(-45 -1.74219 47.3438)" fill="#D70F37"/>
<rect x="-2.68848" y="40.29" width="26.8728" height="3.39045" transform="rotate(-45 -2.68848 40.29)" fill="#D70F37"/>
<rect x="-2.68896" y="32.2908" width="15.5588" height="3.39045" transform="rotate(-45 -2.68896 32.2908)" fill="#D70F37"/>
<rect x="-2.58301" y="24.1846" width="3.98196" height="3.39045" transform="rotate(-45 -2.58301 24.1846)" fill="#D70F37"/>
</g>
<mask id="mask16_636_4442" style="mask-type:alpha" maskUnits="userSpaceOnUse" x="144" y="48" width="24" height="24">
<rect x="144" y="48" width="24" height="24" fill="#C3C7CD"/>
</mask>
<g mask="url(#mask16_636_4442)">
<rect x="165.214" y="72.3892" width="4.42114" height="3.39045" transform="rotate(-45 165.214 72.3892)" fill="#D70F37"/>
<rect x="157.141" y="72.4604" width="15.8702" height="3.39045" transform="rotate(-45 157.141 72.4604)" fill="#D70F37"/>
<rect x="149.385" y="72.2173" width="26.8039" height="3.39045" transform="rotate(-45 149.385 72.2173)" fill="#D70F37"/>
<rect x="142.258" y="71.3438" width="35.133" height="3.39045" transform="rotate(-45 142.258 71.3438)" fill="#D70F37"/>
<rect x="141.312" y="64.29" width="26.8728" height="3.39045" transform="rotate(-45 141.312 64.29)" fill="#D70F37"/>
<rect x="141.311" y="56.2908" width="15.5588" height="3.39045" transform="rotate(-45 141.311 56.2908)" fill="#D70F37"/>
<rect x="141.417" y="48.1846" width="3.98196" height="3.39045" transform="rotate(-45 141.417 48.1846)" fill="#D70F37"/>
</g>
<mask id="mask17_636_4442" style="mask-type:alpha" maskUnits="userSpaceOnUse" x="0" y="48" width="24" height="24">
<rect y="48" width="24" height="24" fill="#C3C7CD"/>
</mask>
<g mask="url(#mask17_636_4442)">
<rect x="21.2139" y="72.3892" width="4.42114" height="3.39045" transform="rotate(-45 21.2139 72.3892)" fill="#D70F37"/>
<rect x="13.1411" y="72.4604" width="15.8702" height="3.39045" transform="rotate(-45 13.1411 72.4604)" fill="#D70F37"/>
<rect x="5.38477" y="72.2173" width="26.8039" height="3.39045" transform="rotate(-45 5.38477 72.2173)" fill="#D70F37"/>
<rect x="-1.74219" y="71.3438" width="35.133" height="3.39045" transform="rotate(-45 -1.74219 71.3438)" fill="#D70F37"/>
<rect x="-2.68848" y="64.29" width="26.8728" height="3.39045" transform="rotate(-45 -2.68848 64.29)" fill="#D70F37"/>
<rect x="-2.68896" y="56.2908" width="15.5588" height="3.39045" transform="rotate(-45 -2.68896 56.2908)" fill="#D70F37"/>
<rect x="-2.58301" y="48.1846" width="3.98196" height="3.39045" transform="rotate(-45 -2.58301 48.1846)" fill="#D70F37"/>
</g>
<mask id="mask18_636_4442" style="mask-type:alpha" maskUnits="userSpaceOnUse" x="144" y="72" width="24" height="24">
<rect x="144" y="72" width="24" height="24" fill="#C3C7CD"/>
</mask>
<g mask="url(#mask18_636_4442)">
<rect x="165.214" y="96.3892" width="4.42114" height="3.39045" transform="rotate(-45 165.214 96.3892)" fill="#D70F37"/>
<rect x="157.141" y="96.4604" width="15.8702" height="3.39045" transform="rotate(-45 157.141 96.4604)" fill="#D70F37"/>
<rect x="149.385" y="96.2173" width="26.8039" height="3.39045" transform="rotate(-45 149.385 96.2173)" fill="#D70F37"/>
<rect x="142.258" y="95.3438" width="35.133" height="3.39045" transform="rotate(-45 142.258 95.3438)" fill="#D70F37"/>
<rect x="141.312" y="88.29" width="26.8728" height="3.39045" transform="rotate(-45 141.312 88.29)" fill="#D70F37"/>
<rect x="141.311" y="80.2908" width="15.5588" height="3.39045" transform="rotate(-45 141.311 80.2908)" fill="#D70F37"/>
<rect x="141.417" y="72.1846" width="3.98196" height="3.39045" transform="rotate(-45 141.417 72.1846)" fill="#D70F37"/>
</g>
<mask id="mask19_636_4442" style="mask-type:alpha" maskUnits="userSpaceOnUse" x="0" y="72" width="24" height="24">
<rect y="72" width="24" height="24" fill="#C3C7CD"/>
</mask>
<g mask="url(#mask19_636_4442)">
<rect x="21.2139" y="96.3892" width="4.42114" height="3.39045" transform="rotate(-45 21.2139 96.3892)" fill="#D70F37"/>
<rect x="13.1411" y="96.4604" width="15.8702" height="3.39045" transform="rotate(-45 13.1411 96.4604)" fill="#D70F37"/>
<rect x="5.38477" y="96.2173" width="26.8039" height="3.39045" transform="rotate(-45 5.38477 96.2173)" fill="#D70F37"/>
<rect x="-1.74219" y="95.3438" width="35.133" height="3.39045" transform="rotate(-45 -1.74219 95.3438)" fill="#D70F37"/>
<rect x="-2.68848" y="88.29" width="26.8728" height="3.39045" transform="rotate(-45 -2.68848 88.29)" fill="#D70F37"/>
<rect x="-2.68896" y="80.2908" width="15.5588" height="3.39045" transform="rotate(-45 -2.68896 80.2908)" fill="#D70F37"/>
<rect x="-2.58301" y="72.1846" width="3.98196" height="3.39045" transform="rotate(-45 -2.58301 72.1846)" fill="#D70F37"/>
</g>
<mask id="mask20_636_4442" style="mask-type:alpha" maskUnits="userSpaceOnUse" x="144" y="96" width="24" height="24">
<rect x="144" y="96" width="24" height="24" fill="#C3C7CD"/>
</mask>
<g mask="url(#mask20_636_4442)">
<rect x="165.214" y="120.389" width="4.42114" height="3.39045" transform="rotate(-45 165.214 120.389)" fill="#D70F37"/>
<rect x="157.141" y="120.46" width="15.8702" height="3.39045" transform="rotate(-45 157.141 120.46)" fill="#D70F37"/>
<rect x="149.385" y="120.217" width="26.8039" height="3.39045" transform="rotate(-45 149.385 120.217)" fill="#D70F37"/>
<rect x="142.258" y="119.344" width="35.133" height="3.39045" transform="rotate(-45 142.258 119.344)" fill="#D70F37"/>
<rect x="141.312" y="112.29" width="26.8728" height="3.39045" transform="rotate(-45 141.312 112.29)" fill="#D70F37"/>
<rect x="141.311" y="104.291" width="15.5588" height="3.39045" transform="rotate(-45 141.311 104.291)" fill="#D70F37"/>
<rect x="141.417" y="96.1846" width="3.98196" height="3.39045" transform="rotate(-45 141.417 96.1846)" fill="#D70F37"/>
</g>
<mask id="mask21_636_4442" style="mask-type:alpha" maskUnits="userSpaceOnUse" x="0" y="96" width="24" height="24">
<rect y="96" width="24" height="24" fill="#C3C7CD"/>
</mask>
<g mask="url(#mask21_636_4442)">
<rect x="21.2139" y="120.389" width="4.42114" height="3.39045" transform="rotate(-45 21.2139 120.389)" fill="#D70F37"/>
<rect x="13.1411" y="120.46" width="15.8702" height="3.39045" transform="rotate(-45 13.1411 120.46)" fill="#D70F37"/>
<rect x="5.38477" y="120.217" width="26.8039" height="3.39045" transform="rotate(-45 5.38477 120.217)" fill="#D70F37"/>
<rect x="-1.74219" y="119.344" width="35.133" height="3.39045" transform="rotate(-45 -1.74219 119.344)" fill="#D70F37"/>
<rect x="-2.68848" y="112.29" width="26.8728" height="3.39045" transform="rotate(-45 -2.68848 112.29)" fill="#D70F37"/>
<rect x="-2.68896" y="104.291" width="15.5588" height="3.39045" transform="rotate(-45 -2.68896 104.291)" fill="#D70F37"/>
<rect x="-2.58301" y="96.1846" width="3.98196" height="3.39045" transform="rotate(-45 -2.58301 96.1846)" fill="#D70F37"/>
</g>
<mask id="mask22_636_4442" style="mask-type:alpha" maskUnits="userSpaceOnUse" x="144" y="120" width="24" height="24">
<rect x="144" y="120" width="24" height="24" fill="#C3C7CD"/>
</mask>
<g mask="url(#mask22_636_4442)">
<rect x="165.214" y="144.389" width="4.42114" height="3.39045" transform="rotate(-45 165.214 144.389)" fill="#D70F37"/>
<rect x="157.141" y="144.46" width="15.8702" height="3.39045" transform="rotate(-45 157.141 144.46)" fill="#D70F37"/>
<rect x="149.385" y="144.217" width="26.8039" height="3.39045" transform="rotate(-45 149.385 144.217)" fill="#D70F37"/>
<rect x="142.258" y="143.344" width="35.133" height="3.39045" transform="rotate(-45 142.258 143.344)" fill="#D70F37"/>
<rect x="141.312" y="136.29" width="26.8728" height="3.39045" transform="rotate(-45 141.312 136.29)" fill="#D70F37"/>
<rect x="141.311" y="128.291" width="15.5588" height="3.39045" transform="rotate(-45 141.311 128.291)" fill="#D70F37"/>
<rect x="141.417" y="120.185" width="3.98196" height="3.39045" transform="rotate(-45 141.417 120.185)" fill="#D70F37"/>
</g>
<mask id="mask23_636_4442" style="mask-type:alpha" maskUnits="userSpaceOnUse" x="0" y="120" width="24" height="24">
<rect y="120" width="24" height="24" fill="#C3C7CD"/>
</mask>
<g mask="url(#mask23_636_4442)">
<rect x="21.2139" y="144.389" width="4.42114" height="3.39045" transform="rotate(-45 21.2139 144.389)" fill="#D70F37"/>
<rect x="13.1411" y="144.46" width="15.8702" height="3.39045" transform="rotate(-45 13.1411 144.46)" fill="#D70F37"/>
<rect x="5.38477" y="144.217" width="26.8039" height="3.39045" transform="rotate(-45 5.38477 144.217)" fill="#D70F37"/>
<rect x="-1.74219" y="143.344" width="35.133" height="3.39045" transform="rotate(-45 -1.74219 143.344)" fill="#D70F37"/>
<rect x="-2.68848" y="136.29" width="26.8728" height="3.39045" transform="rotate(-45 -2.68848 136.29)" fill="#D70F37"/>
<rect x="-2.68896" y="128.291" width="15.5588" height="3.39045" transform="rotate(-45 -2.68896 128.291)" fill="#D70F37"/>
<rect x="-2.58301" y="120.185" width="3.98196" height="3.39045" transform="rotate(-45 -2.58301 120.185)" fill="#D70F37"/>
</g>
</svg>
